<svg xmlns="http://www.w3.org/2000/svg" version="1.1" x="0" y="0" viewBox="0 0 150 150" xml:space="preserve" enable-background="new 0 0 150 150" fill="rgba(230,230,0,1)"><path d="M142.26 96.95c2.22-1.45 2.44-2.77 0.67-4.58 -0.64-0.65-1.44-1.22-2.26-1.62 -1.06-0.51-2.23-0.79-3.38-1.19 2.48-1.11 2.72-1.36 3.42-3.43l-1.05-1.68c-3.64-1.86-7.26-1.31-10.84 0.17 -3 1.24-5.94 2.63-8.96 3.8 -3.76 1.46-7.6 1.88-11.47 1.81 -0.18-0.03-0.36-0.05-0.54-0.07 -5.04-0.42-10.73-1.56-15.95-3.14 0.73-0.91 1.43-1.83 2.03-2.8 1.26-2.02 0.87-2.7-1.56-3.52 1.34-1.46 2.68-2.8 3.9-4.26 1.09-1.3 2.13-2.65 3.02-4.09 0.65-1.04 0.99-2.33 0.06-3.41 -1-1.17-2.36-0.99-3.68-0.64 -0.34 0.09-0.65 0.27-1.18 0.5 0.86-2.49 1.78-4.72 2.4-7.04 0.46-1.73 0.79-3.57 0.73-5.35 -0.12-4.05-1.93-5.05-5.49-3.25 0.26-2.88 0.65-5.75 0.73-8.64 0.06-2.13-0.08-4.3-0.48-6.39 -0.64-3.41-1.69-3.72-4.21-1.53 -0.23-2.05-0.39-4.1-0.71-6.12 -0.14-0.91-0.52-1.8-0.89-2.65 -1.07-2.48-2.22-2.67-4.17-0.84 -0.68-2.11-1.37-4.27-2.07-6.43 -0.07-0.21-0.18-0.4-0.28-0.6 -1.15-2.12-1.88-2.2-3.4-0.36 -1.54-2.66-2.06-6.03-5.24-7.53l-1.4 0.88c-1.13 3.18-0.65 6.39-0.1 9.57 0.14 0.78 0.25 1.55 0.34 2.32 -0.13 0.72-0.09 1.48 0.17 2.2 0.02 0.05 0.03 0.09 0.05 0.14 0.21 2.97 0.12 5.9-0.21 8.78 -0.12 0.53-0.24 1.07-0.37 1.6 -0.05 0.23-0.01 0.42 0.08 0.57 -0.94 5.96-2.89 11.76-5.4 17.47 -0.6 1.36-1.1 2.76-1.68 4.13 -2.68 6.38-0.51 12.05 2.52 17.62 1.02 1.88 1.96 3.83 2.77 5.81 0.27 0.65 0.48 1.27 0.63 1.87 -1.73-2.54-3.46-5.08-5.19-7.61 -1-1.82-2.18-3.52-3.65-5.05 -0.56-0.58-1.45-0.85-2.18-1.26 -0.35 0.69-0.7 1.39-1.06 2.11 -0.97-1.12-2-2.44-3.18-3.61 -1.01-1-2.11-1.94-3.3-2.71 -2.35-1.51-3.4-1.02-4.01 1.39 -2-1.69-4.09-3.5-6.23-5.23 -0.54-0.43-1.26-0.67-1.94-0.9 -1.71-0.58-2.3-0.34-3.12 1.09 -1.74-0.98-3.41-2.13-5.23-2.89 -2.71-1.13-3.98-0.45-4.84 2.32 -3.08-2.18-6.47-3.59-10.21-3.85 -1.89-0.13-3.84 0.06-5.72 0.33 -0.87 0.13-1.75 0.69-2.45 1.27 -0.43 0.36-0.83 1.18-0.72 1.66 0.11 0.47 0.85 0.9 1.4 1.14 0.59 0.26 1.28 0.32 1.94 0.39 7.87 0.85 14.03 5.06 19.42 10.4 3.31 3.27 6.12 7.05 9.04 10.7 1.69 2.11 3.79 3.49 6.29 4.34 3.95 1.34 8.1 2.21 11.44 4.97 0.06 0.05 0.15 0.08 0.26 0.08 0.21 0.28 0.45 0.54 0.74 0.76 0.07 0.05 0.14 0.1 0.2 0.15 -1.26 0.13-2.52 0.27-3.76 0.49 -2.53 0.46-5.07 1.05-7.49 1.92 -7.07 2.54-9.66 10.7-5.52 16.96 0.8 1.21 1.43 2.53 2.25 4.02 1.31 1.92 0.66 4.14 1.25 3.63 0.6-0.5 1.19-2.56 1.57-3.14 0.43-1.32 1.08-2.12 2.77-2.31 2.48-0.28 4.51-1.83 5.58-3.73 0.63-0.18 1.27-0.36 1.9-0.55 0.08 0.03 0.16 0.05 0.24 0.05 5.68-0.08 10.86 2.18 16.26 3.42 4.38 1.01 8.81 2.06 13.28 2.4 8.8 0.67 15.24-3.41 18.98-11.45 0.18-0.39 0.35-0.8 0.52-1.2 0.71-0.03 1.42-0.04 2.13-0.02 0.5 0.01 0.99 0.04 1.49 0.07 0.17 0.09 0.34 0.17 0.52 0.2 0.66 0.12 1.3 0.27 1.92 0.44 0.36 0.2 0.75 0.37 1.17 0.48 1.1 0.31 2.26 0.75 3.39 1.3 4.18 2.23 7.29 5.79 9.51 10.52 0.5 1.07 1.27 2.09 2.15 2.89 1.92 1.76 3.93 1.06 4.55-1.47 0.02-0.07 0.03-0.14 0.05-0.22 0.08-0.04 0.16-0.08 0.23-0.13 0.34-0.21 0.63-0.45 0.89-0.71 0.96 0.51 1.94 1.01 2.91 1.52l1.96-1.23c1-1.94 1.64-3.94 1.09-6.18 0.28-0.06 0.56-0.14 0.83-0.25 1.29 0.35 2.49 0.52 3.47-0.64 1.25-1.49 0.83-3.22 0.23-4.85 -0.25-0.68-0.63-1.33-1-2.01 0.22-0.15 0.43-0.31 0.63-0.49 1.3 0.11 2.57 0.07 3.35-1.27 0.65-1.12 0.19-3.07-1.06-4.38C143.95 98.3 143.07 97.65 142.26 96.95z"/></svg>