<svg xmlns="http://www.w3.org/2000/svg" version="1.1" x="0" y="0" width="32" height="32" viewBox="0 0 16 16" enable-background="new 0 0 16 16" xml:space="preserve" fill="#fff"><path d="M5 7.8l3-2.7 3 2.7c0.2 0.2 0.5 0.2 0.7 0 0.2-0.2 0.2-0.5 0-0.7L8.4 4.1c-0.1-0.1-0.2-0.1-0.4-0.1C7.9 4 7.8 4 7.7 4.1L4.3 7.1c-0.2 0.2-0.2 0.5 0 0.7C4.5 8 4.8 8 5 7.8zM8.4 7.7c-0.1-0.1-0.2-0.1-0.4-0.1C7.9 7.6 7.8 7.6 7.7 7.7l-3.3 3c-0.2 0.2-0.2 0.5 0 0.7 0.2 0.2 0.5 0.2 0.7 0l3-2.6 3 2.6c0.2 0.2 0.5 0.2 0.7 0 0.2-0.2 0.2-0.5 0-0.7L8.4 7.7z"  transform="rotate(180 8 8)"/></svg>