<svg xmlns="http://www.w3.org/2000/svg" version="1.1" x="0" y="0" viewBox="0 0 32 32" enable-background="new 0 0 32 32" xml:space="preserve" fill="#4AD"><path d="M17 0.6c-0.9-0.6-2-0.6-2.8 0L1.7 9.4c-0.7 0.5-1.1 1.2-1.1 2.1v9.4c0 0.8 0.4 1.6 1.1 2.1l12.8 8.5c0.8 0.6 1.9 0.6 2.8 0l13-8.6c0.7-0.5 1.1-1.2 1.1-2.1v-9.3c0-0.8-0.4-1.6-1.1-2.1L17 0.6zM26.8 10.8l-4.8 3.2 -4.5-3.3 0-6.5L26.8 10.8zM14.1 4.3v6.3l-4.6 3.2 -4.6-3.1L14.1 4.3zM3.6 13.9l3 2 -3 2.1V13.9zM14.2 27.4l-9.3-6.3 4.7-3.3 4.7 3.1V27.4zM12.5 15.8l3-2.1 3.5 2.3 -3.1 2.1L12.5 15.8zM17.5 27.4v-6.4l4.5-3 4.8 3.2L17.5 27.4zM28.1 18.1l-3.2-2.1 3.2-2.1V18.1z"/></svg>