<svg xmlns="http://www.w3.org/2000/svg" version="1.1" x="0" y="0" viewBox="0 0 16 16" enable-background="new 0 0 16.002 16" xml:space="preserve" fill="#4AD"><path d="M16 3.04c-0.59 0.26-1.22 0.44-1.88 0.52 0.68-0.41 1.2-1.05 1.44-1.81 -0.63 0.38-1.34 0.65-2.09 0.8C12.88 1.9 12.02 1.5 11.08 1.5c-1.81 0-3.28 1.47-3.28 3.28 0 0.26 0.03 0.51 0.09 0.75C5.15 5.39 2.73 4.09 1.11 2.1 0.83 2.58 0.67 3.15 0.67 3.75c0 1.14 0.58 2.14 1.46 2.73C1.59 6.46 1.09 6.32 0.64 6.07v0.04c0 1.59 1.13 2.92 2.63 3.22C3 9.4 2.71 9.45 2.41 9.45c-0.21 0-0.42-0.02-0.62-0.06 0.42 1.3 1.63 2.25 3.07 2.28 -1.12 0.88-2.54 1.4-4.08 1.4 -0.26 0-0.53-0.02-0.78-0.04C1.45 13.96 3.18 14.5 5.03 14.5c6.04 0 9.34-5 9.34-9.34L14.36 4.74C15 4.27 15.56 3.7 16 3.04z"/></svg>